<svg xmlns="http://www.w3.org/2000/svg" xmlns:xlink="http://www.w3.org/1999/xlink" width="500" zoomAndPan="magnify" viewBox="0 0 375 374.999991" height="500" preserveAspectRatio="xMidYMid meet" version="1.0"><defs><g/></defs><rect x="-37.5" width="450" fill="#ffffff" y="-37.499999" height="449.999989" fill-opacity="1"/><rect x="-37.5" width="450" fill="#ffffff" y="-37.499999" height="449.999989" fill-opacity="1"/><rect x="-37.5" width="450" fill="#ffffff" y="-37.499999" height="449.999989" fill-opacity="1"/><g fill="#000000" fill-opacity="1"><g transform="translate(178.930925, 142.868659)"><g/></g></g><g fill="#ffffff" fill-opacity="1"><g transform="translate(73.523114, 221.344367)"><g><path d="M 35.722656 -65.277344 C 33.617188 -65.277344 30.910156 -64.828125 29.027344 -63.472656 C 28.878906 -65.953125 26.398438 -67.609375 23.691406 -67.609375 C 20.980469 -67.609375 18.199219 -66.105469 16.847656 -62.34375 L -2.179688 -7.820312 C -2.480469 -6.917969 -2.707031 -6.089844 -2.707031 -5.339844 C -2.707031 -2.03125 0.0742188 0 3.082031 0 C 5.566406 0 8.199219 -1.503906 9.402344 -5.039062 L 14.4375 -19.855469 C 17.070312 -17.371094 20.90625 -15.792969 25.117188 -15.792969 C 32.488281 -15.792969 40.460938 -20.304688 43.84375 -29.855469 L 49.785156 -46.550781 C 50.460938 -48.433594 50.839844 -50.386719 50.839844 -52.042969 C 50.839844 -60.691406 43.996094 -65.277344 35.722656 -65.277344 Z M 37.300781 -46.175781 L 32.714844 -32.714844 C 31.4375 -28.953125 28.578125 -27 25.644531 -27 C 22.335938 -27 19.628906 -29.480469 19.628906 -32.863281 C 19.628906 -33.464844 19.703125 -33.917969 19.929688 -34.519531 L 25.117188 -49.785156 C 26.546875 -53.921875 29.628906 -55.351562 32.640625 -55.351562 C 35.648438 -55.351562 37.902344 -53.394531 37.902344 -49.785156 C 37.902344 -48.808594 37.753906 -47.605469 37.300781 -46.175781 Z M 37.300781 -46.175781 "/></g></g></g><g fill="#ffffff" fill-opacity="1"><g transform="translate(117.065223, 221.344367)"><g><path d="M 47.152344 -25.417969 C 45.046875 -25.417969 42.714844 -24.140625 41.8125 -21.28125 C 38.882812 -12.03125 34.144531 -8.949219 30.757812 -8.949219 C 29.480469 -8.949219 28.726562 -9.625 28.726562 -10.828125 C 28.726562 -11.429688 28.878906 -12.183594 29.105469 -13.011719 L 37.527344 -37.375 C 37.828125 -38.28125 37.980469 -39.105469 37.980469 -39.859375 C 37.980469 -43.167969 35.269531 -44.898438 32.488281 -44.898438 C 30.382812 -44.898438 28.203125 -43.917969 27 -42.039062 C 25.417969 -43.015625 22.484375 -44.144531 18.652344 -44.144531 C 13.6875 -44.144531 8.273438 -41.4375 6.242188 -35.648438 L -0.828125 -15.417969 C -1.277344 -14.0625 -1.578125 -12.710938 -1.578125 -11.355469 C -1.578125 -5.113281 3.460938 0 10.078125 0 C 13.613281 0 17.222656 -1.578125 20.003906 -4.0625 C 22.410156 -0.601562 27.75 0 30.007812 0 C 36.25 0 44.597656 -3.160156 49.410156 -15.34375 C 50.460938 -18.273438 51.289062 -20.15625 51.289062 -21.507812 C 51.289062 -24.066406 49.335938 -25.417969 47.152344 -25.417969 Z M 22.335938 -26.171875 L 18.726562 -14.964844 C 17.148438 -10.078125 14.289062 -8.949219 12.710938 -8.949219 C 11.054688 -8.949219 10.226562 -10.003906 10.226562 -11.730469 C 10.226562 -12.710938 10.453125 -13.613281 10.679688 -14.289062 L 15.492188 -29.40625 C 16.921875 -33.992188 19.027344 -34.59375 20.230469 -34.59375 C 21.660156 -34.59375 23.238281 -33.164062 23.238281 -30.609375 C 23.238281 -29.480469 22.9375 -28.050781 22.335938 -26.171875 Z M 22.335938 -26.171875 "/></g></g></g><g fill="#ffffff" fill-opacity="1"><g transform="translate(156.546409, 221.344367)"><g><path d="M 10.304688 -12.257812 L 26.097656 -57.984375 C 26.398438 -58.886719 26.546875 -59.789062 26.546875 -60.539062 C 26.546875 -63.398438 23.839844 -65.277344 21.582031 -65.277344 C 18.726562 -65.277344 16.847656 -63.699219 15.644531 -60.3125 L 0 -15.644531 C -0.601562 -13.914062 -0.902344 -12.332031 -0.902344 -10.753906 C -0.902344 -3.835938 4.8125 0 11.429688 0 C 18.574219 0 27.523438 -4.4375 32.789062 -20.078125 C 32.941406 -20.605469 33.015625 -21.132812 33.015625 -21.582031 C 33.015625 -23.992188 30.910156 -25.71875 28.578125 -25.71875 C 26.699219 -25.71875 24.667969 -24.59375 23.613281 -21.808594 C 20.230469 -12.785156 15.867188 -8.949219 12.332031 -8.949219 C 10.828125 -8.949219 10.003906 -9.851562 10.003906 -10.980469 C 10.003906 -11.28125 10.152344 -11.808594 10.304688 -12.257812 Z M 10.304688 -12.257812 "/></g></g></g><g fill="#ffffff" fill-opacity="1"><g transform="translate(177.52784, 221.344367)"><g><path d="M 38.054688 -21.207031 C 34.746094 -12.484375 26.847656 -8.949219 20.457031 -8.949219 C 14.964844 -8.949219 11.507812 -11.582031 11.507812 -15.039062 C 11.507812 -15.71875 11.582031 -16.394531 11.882812 -17.148438 L 12.484375 -18.574219 C 14.664062 -17.222656 17.371094 -16.320312 20.378906 -16.320312 C 27.222656 -16.320312 33.242188 -20.605469 35.269531 -27.375 C 35.648438 -28.804688 35.871094 -30.230469 35.871094 -31.511719 C 35.871094 -38.65625 30.230469 -44.144531 21.734375 -44.144531 C 15.039062 -44.144531 8.5 -40.234375 5.867188 -32.714844 L 1.429688 -19.855469 C 0.828125 -18.050781 0.453125 -16.246094 0.453125 -14.515625 C 0.453125 -5.566406 8.875 0 19.855469 0 C 30.308594 0 42.191406 -5.113281 47.152344 -19.476562 C 47.378906 -20.078125 47.453125 -20.605469 47.453125 -21.058594 C 47.453125 -23.390625 45.347656 -24.667969 43.09375 -24.667969 C 40.988281 -24.667969 38.730469 -23.539062 38.054688 -21.207031 Z M 21.507812 -35.269531 C 23.613281 -35.269531 24.96875 -33.542969 24.96875 -31.359375 C 24.96875 -30.757812 24.894531 -30.15625 24.667969 -29.554688 C 23.914062 -27.074219 21.660156 -26.171875 19.402344 -26.171875 C 17.972656 -26.171875 16.546875 -26.472656 15.492188 -27.074219 L 17.070312 -31.585938 C 17.898438 -33.917969 19.777344 -35.269531 21.507812 -35.269531 Z M 21.507812 -35.269531 "/></g></g></g><g fill="#ffffff" fill-opacity="1"><g transform="translate(213.173715, 221.344367)"><g><path d="M 26.847656 -21.207031 C 23.839844 -12.933594 19.101562 -8.949219 14.738281 -8.949219 C 12.03125 -8.949219 10.378906 -10.605469 10.378906 -12.632812 C 10.378906 -13.160156 10.527344 -13.761719 10.679688 -14.289062 L 18.050781 -35.269531 L 22.9375 -35.269531 C 26.773438 -35.269531 28.804688 -37.980469 28.804688 -40.460938 C 28.804688 -42.414062 27.523438 -44.144531 24.667969 -44.144531 L 21.28125 -44.144531 L 26.320312 -58.808594 C 26.472656 -59.335938 26.546875 -59.789062 26.546875 -60.238281 C 26.546875 -63.023438 24.59375 -65.277344 21.28125 -65.277344 C 18.800781 -65.277344 16.695312 -63.546875 15.792969 -60.917969 L 9.777344 -44.144531 L 6.617188 -44.144531 C 2.558594 -44.144531 0.828125 -41.589844 0.828125 -39.183594 C 0.828125 -37.074219 2.105469 -35.269531 4.136719 -35.269531 L 6.617188 -35.269531 L 0.300781 -17.148438 L 0.300781 -17.222656 C -0.300781 -15.417969 -0.601562 -13.761719 -0.601562 -12.183594 C -0.601562 -4.511719 6.242188 0 13.988281 0 C 23.613281 0 31.660156 -7.144531 35.949219 -19.476562 C 36.097656 -20.003906 36.25 -20.53125 36.25 -20.980469 C 36.25 -23.238281 34.066406 -24.667969 31.738281 -24.667969 C 29.855469 -24.667969 27.75 -23.613281 26.847656 -21.207031 Z M 26.847656 -21.207031 "/></g></g></g><g fill="#ffffff" fill-opacity="1"><g transform="translate(237.764843, 221.344367)"><g><path d="M 26.847656 -21.207031 C 23.839844 -12.933594 19.101562 -8.949219 14.738281 -8.949219 C 12.03125 -8.949219 10.378906 -10.605469 10.378906 -12.632812 C 10.378906 -13.160156 10.527344 -13.761719 10.679688 -14.289062 L 18.050781 -35.269531 L 22.9375 -35.269531 C 26.773438 -35.269531 28.804688 -37.980469 28.804688 -40.460938 C 28.804688 -42.414062 27.523438 -44.144531 24.667969 -44.144531 L 21.28125 -44.144531 L 26.320312 -58.808594 C 26.472656 -59.335938 26.546875 -59.789062 26.546875 -60.238281 C 26.546875 -63.023438 24.59375 -65.277344 21.28125 -65.277344 C 18.800781 -65.277344 16.695312 -63.546875 15.792969 -60.917969 L 9.777344 -44.144531 L 6.617188 -44.144531 C 2.558594 -44.144531 0.828125 -41.589844 0.828125 -39.183594 C 0.828125 -37.074219 2.105469 -35.269531 4.136719 -35.269531 L 6.617188 -35.269531 L 0.300781 -17.148438 L 0.300781 -17.222656 C -0.300781 -15.417969 -0.601562 -13.761719 -0.601562 -12.183594 C -0.601562 -4.511719 6.242188 0 13.988281 0 C 23.613281 0 31.660156 -7.144531 35.949219 -19.476562 C 36.097656 -20.003906 36.25 -20.53125 36.25 -20.980469 C 36.25 -23.238281 34.066406 -24.667969 31.738281 -24.667969 C 29.855469 -24.667969 27.75 -23.613281 26.847656 -21.207031 Z M 26.847656 -21.207031 "/></g></g></g><g fill="#dffdba" fill-opacity="1"><g transform="translate(262.355326, 221.344367)"><g><path d="M 10.378906 -12.933594 L 18.726562 -36.625 C 19.027344 -37.453125 19.175781 -38.203125 19.175781 -38.957031 C 19.175781 -42.039062 16.46875 -44.144531 13.6875 -44.144531 C 11.582031 -44.144531 9.324219 -42.867188 8.273438 -39.859375 L -0.828125 -13.988281 C -1.355469 -12.558594 -1.578125 -11.128906 -1.578125 -9.777344 C -1.578125 -4.664062 2.03125 -0.976562 6.917969 0 C -2.257812 2.03125 -11.355469 5.789062 -11.355469 15.039062 C -11.355469 22.335938 -4.585938 27.148438 2.78125 27.148438 C 10.226562 27.148438 17.222656 23.164062 20.378906 14.4375 C 21.433594 11.28125 22.636719 7.972656 23.765625 4.886719 C 34.519531 1.503906 45.574219 -4.363281 50.761719 -20.15625 C 50.988281 -20.757812 51.0625 -21.359375 51.0625 -21.882812 C 51.0625 -24.441406 49.109375 -25.945312 46.851562 -25.945312 C 44.820312 -25.945312 42.640625 -24.667969 41.589844 -21.734375 C 38.804688 -14.0625 33.765625 -9.550781 27.902344 -6.542969 L 38.503906 -37.152344 C 38.730469 -37.828125 38.804688 -38.429688 38.804688 -38.957031 C 38.804688 -42.039062 36.097656 -44.144531 33.316406 -44.144531 C 31.210938 -44.144531 28.953125 -42.867188 27.902344 -39.859375 L 19.253906 -14.4375 C 16.847656 -10.378906 14.214844 -8.875 12.183594 -8.875 C 10.828125 -8.875 10.003906 -9.703125 10.003906 -11.054688 C 10.003906 -11.582031 10.152344 -12.257812 10.378906 -12.933594 Z M 10.003906 8.347656 L 8.199219 13.460938 C 7.144531 16.246094 4.8125 17.671875 2.558594 17.671875 C 0.828125 17.671875 0.0742188 16.621094 0.0742188 15.265625 C 0.0742188 14.816406 0.152344 14.214844 0.375 13.6875 C 1.429688 11.054688 5.113281 9.625 10.003906 8.347656 Z M 10.003906 8.347656 "/></g></g></g></svg>